<svg width="24" height="24" viewBox="0 0 24 24" fill="none" xmlns="http://www.w3.org/2000/svg">
<path d="M11.7109 7.86719C11.2891 7.86719 10.9297 7.50781 10.9297 7.08593V4.78906C10.9297 4.36719 11.2891 4 11.7109 4C12.1328 4 12.4922 4.36719 12.4922 4.78906V7.08593C12.4922 7.50781 12.1328 7.86719 11.7109 7.86719ZM15.2188 9.22656C14.9141 8.92969 14.9141 8.42187 15.2109 8.125L16.8047 6.51562C17.1016 6.21875 17.6094 6.21093 17.9063 6.50781C18.2109 6.80469 18.2109 7.3125 17.9141 7.60937L16.3203 9.21875C16.0234 9.52343 15.5156 9.52343 15.2188 9.22656ZM8.28117 9.28906C7.98437 9.58593 7.46867 9.58593 7.17188 9.28906L5.57028 7.67969C5.27338 7.38281 5.27338 6.875 5.57028 6.57031C5.86718 6.27343 6.37498 6.28125 6.67968 6.57812L8.28117 8.1875C8.57807 8.48437 8.57807 8.99219 8.28117 9.28906ZM12.3281 18.25C12.3359 18.5937 11.9297 18.7109 11.7031 18.4844L10.5547 17.3203L9.24998 20.5469C9.17188 20.7266 8.99998 20.8281 8.80468 20.7578L8.00778 20.4453C7.81248 20.3594 7.77337 20.1484 7.85147 19.9844L9.23438 16.7969L7.58587 16.75C7.24997 16.7422 7.08588 16.4062 7.32808 16.1484L11.6719 11.7109C11.8984 11.4844 12.2344 11.6094 12.2422 11.9375L12.3281 18.25ZM16.5547 12.7109C16.5547 12.2891 16.9141 11.9297 17.3359 11.9297H19.6406C20.0625 11.9297 20.4219 12.2891 20.4219 12.7109C20.4219 13.1328 20.0625 13.4922 19.6406 13.4922H17.3359C16.9141 13.4922 16.5547 13.1328 16.5547 12.7109ZM6.85938 12.7109C6.85938 13.1328 6.49998 13.4922 6.07808 13.4922H3.78118C3.35938 13.4922 2.99998 13.1328 2.99998 12.7109C2.99998 12.2891 3.35938 11.9297 3.78118 11.9297H6.07808C6.49998 11.9297 6.85938 12.2891 6.85938 12.7109ZM15.1484 16.1484C15.4375 15.8437 15.9531 15.8437 16.25 16.1406L17.8516 17.7344C18.1563 18.0312 18.1563 18.539 17.8672 18.8359C17.5625 19.1406 17.0547 19.1484 16.75 18.8516L15.1484 17.25C14.8516 16.9531 14.8438 16.4453 15.1484 16.1484Z" fill="white"/>
</svg>
